<?xml version="1.0" encoding="UTF-8" standalone="no"?>
<!DOCTYPE svg PUBLIC "-//W3C//DTD SVG 1.1//EN"
 "http://www.w3.org/Graphics/SVG/1.1/DTD/svg11.dtd">
<!-- Generated by graphviz version 2.30.0 (20130807.2243)
 -->
<!-- Title: controllers_diagram Pages: 1 -->
<svg width="522pt" height="546pt"
 viewBox="0.00 0.00 522.43 546.13" xmlns="http://www.w3.org/2000/svg" xmlns:xlink="http://www.w3.org/1999/xlink">
<g id="graph0" class="graph" transform="scale(1 1) rotate(0) translate(4 542.128)">
<title>controllers_diagram</title>
<polygon fill="white" stroke="white" points="-4,5 -4,-542.128 519.429,-542.128 519.429,5 -4,5"/>
<!-- _diagram_info -->
<g id="node1" class="node"><title>_diagram_info</title>
<text text-anchor="start" x="309" y="-149.6" font-family="Times,serif" font-size="13.00">Controllers diagram</text>
<text text-anchor="start" x="309" y="-135.6" font-family="Times,serif" font-size="13.00">Date: Aug 08 2013 &#45; 00:46</text>
<text text-anchor="start" x="309" y="-121.6" font-family="Times,serif" font-size="13.00">Migration version: 20130617205009</text>
<text text-anchor="start" x="309" y="-107.6" font-family="Times,serif" font-size="13.00">Generated by RailRoady 1.1.0</text>
<text text-anchor="start" x="309" y="-93.6" font-family="Times,serif" font-size="13.00">http://railroady.prestonlee.com</text>
</g>
<!-- ApplicationController -->
<g id="node2" class="node"><title>ApplicationController</title>
<path fill="none" stroke="black" d="M100.429,-265.577C100.429,-265.577 285.429,-265.577 285.429,-265.577 291.429,-265.577 297.429,-271.577 297.429,-277.577 297.429,-277.577 297.429,-361.577 297.429,-361.577 297.429,-367.577 291.429,-373.577 285.429,-373.577 285.429,-373.577 100.429,-373.577 100.429,-373.577 94.4291,-373.577 88.4291,-367.577 88.4291,-361.577 88.4291,-361.577 88.4291,-277.577 88.4291,-277.577 88.4291,-271.577 94.4291,-265.577 100.429,-265.577"/>
<text text-anchor="middle" x="192.929" y="-358.377" font-family="Times,serif" font-size="14.00">ApplicationController</text>
<polyline fill="none" stroke="black" points="88.4291,-350.577 297.429,-350.577 "/>
<text text-anchor="start" x="96.4291" y="-335.377" font-family="Times,serif" font-size="14.00">_one_time_conditions_valid_58?</text>
<text text-anchor="start" x="96.4291" y="-320.377" font-family="Times,serif" font-size="14.00">_one_time_conditions_valid_60?</text>
<polyline fill="none" stroke="black" points="88.4291,-312.577 297.429,-312.577 "/>
<polyline fill="none" stroke="black" points="88.4291,-288.577 297.429,-288.577 "/>
<text text-anchor="start" x="96.4291" y="-273.377" font-family="Times,serif" font-size="14.00">_layout</text>
</g>
<!-- AsignaturasController -->
<g id="node3" class="node"><title>AsignaturasController</title>
<path fill="none" stroke="black" d="M317.429,-246.758C317.429,-246.758 502.429,-246.758 502.429,-246.758 508.429,-246.758 514.429,-252.758 514.429,-258.758 514.429,-258.758 514.429,-447.758 514.429,-447.758 514.429,-453.758 508.429,-459.758 502.429,-459.758 502.429,-459.758 317.429,-459.758 317.429,-459.758 311.429,-459.758 305.429,-453.758 305.429,-447.758 305.429,-447.758 305.429,-258.758 305.429,-258.758 305.429,-252.758 311.429,-246.758 317.429,-246.758"/>
<text text-anchor="middle" x="409.929" y="-444.558" font-family="Times,serif" font-size="14.00">AsignaturasController</text>
<polyline fill="none" stroke="black" points="305.429,-436.758 514.429,-436.758 "/>
<text text-anchor="start" x="313.429" y="-421.558" font-family="Times,serif" font-size="14.00">_one_time_conditions_valid_77?</text>
<text text-anchor="start" x="313.429" y="-406.558" font-family="Times,serif" font-size="14.00">array_asignatura</text>
<text text-anchor="start" x="313.429" y="-391.558" font-family="Times,serif" font-size="14.00">create</text>
<text text-anchor="start" x="313.429" y="-376.558" font-family="Times,serif" font-size="14.00">destroy</text>
<text text-anchor="start" x="313.429" y="-361.558" font-family="Times,serif" font-size="14.00">edit</text>
<text text-anchor="start" x="313.429" y="-346.558" font-family="Times,serif" font-size="14.00">index</text>
<text text-anchor="start" x="313.429" y="-331.558" font-family="Times,serif" font-size="14.00">new</text>
<text text-anchor="start" x="313.429" y="-316.558" font-family="Times,serif" font-size="14.00">show</text>
<text text-anchor="start" x="313.429" y="-301.558" font-family="Times,serif" font-size="14.00">update</text>
<polyline fill="none" stroke="black" points="305.429,-293.758 514.429,-293.758 "/>
<polyline fill="none" stroke="black" points="305.429,-269.758 514.429,-269.758 "/>
<text text-anchor="start" x="313.429" y="-254.558" font-family="Times,serif" font-size="14.00">_layout</text>
</g>
<!-- ApplicationController&#45;&gt;AsignaturasController -->
<g id="edge1" class="edge"><title>ApplicationController&#45;&gt;AsignaturasController</title>
<path fill="none" stroke="black" d="M297.615,-335.825C300.217,-336.229 302.821,-336.633 305.422,-337.037"/>
</g>
<!-- CodigosController -->
<g id="node4" class="node"><title>CodigosController</title>
<path fill="none" stroke="black" d="M22.1394,-0.5C22.1394,-0.5 207.139,-0.5 207.139,-0.5 213.139,-0.5 219.139,-6.5 219.139,-12.5 219.139,-12.5 219.139,-216.5 219.139,-216.5 219.139,-222.5 213.139,-228.5 207.139,-228.5 207.139,-228.5 22.1394,-228.5 22.1394,-228.5 16.1394,-228.5 10.1394,-222.5 10.1394,-216.5 10.1394,-216.5 10.1394,-12.5 10.1394,-12.5 10.1394,-6.5 16.1394,-0.5 22.1394,-0.5"/>
<text text-anchor="middle" x="114.639" y="-213.3" font-family="Times,serif" font-size="14.00">CodigosController</text>
<polyline fill="none" stroke="black" points="10.1394,-205.5 219.139,-205.5 "/>
<text text-anchor="start" x="18.1394" y="-190.3" font-family="Times,serif" font-size="14.00">_one_time_conditions_valid_85?</text>
<text text-anchor="start" x="18.1394" y="-175.3" font-family="Times,serif" font-size="14.00">create</text>
<text text-anchor="start" x="18.1394" y="-160.3" font-family="Times,serif" font-size="14.00">destroy</text>
<text text-anchor="start" x="18.1394" y="-145.3" font-family="Times,serif" font-size="14.00">edit</text>
<text text-anchor="start" x="18.1394" y="-130.3" font-family="Times,serif" font-size="14.00">index</text>
<text text-anchor="start" x="18.1394" y="-115.3" font-family="Times,serif" font-size="14.00">info_codigo</text>
<text text-anchor="start" x="18.1394" y="-100.3" font-family="Times,serif" font-size="14.00">new</text>
<text text-anchor="start" x="18.1394" y="-85.3" font-family="Times,serif" font-size="14.00">show</text>
<text text-anchor="start" x="18.1394" y="-70.3" font-family="Times,serif" font-size="14.00">showimage</text>
<text text-anchor="start" x="18.1394" y="-55.3" font-family="Times,serif" font-size="14.00">update</text>
<polyline fill="none" stroke="black" points="10.1394,-47.5 219.139,-47.5 "/>
<polyline fill="none" stroke="black" points="10.1394,-23.5 219.139,-23.5 "/>
<text text-anchor="start" x="18.1394" y="-8.3" font-family="Times,serif" font-size="14.00">_layout</text>
</g>
<!-- ApplicationController&#45;&gt;CodigosController -->
<g id="edge2" class="edge"><title>ApplicationController&#45;&gt;CodigosController</title>
<path fill="none" stroke="black" d="M172.257,-265.427C167.863,-253.916 163.065,-241.35 158.175,-228.541"/>
</g>
<!-- HomeController -->
<g id="node5" class="node"><title>HomeController</title>
<path fill="none" stroke="black" d="M12,-444.628C12,-444.628 100,-444.628 100,-444.628 106,-444.628 112,-450.628 112,-456.628 112,-456.628 112,-525.628 112,-525.628 112,-531.628 106,-537.628 100,-537.628 100,-537.628 12,-537.628 12,-537.628 6,-537.628 0,-531.628 0,-525.628 0,-525.628 0,-456.628 0,-456.628 0,-450.628 6,-444.628 12,-444.628"/>
<text text-anchor="middle" x="56" y="-522.428" font-family="Times,serif" font-size="14.00">HomeController</text>
<polyline fill="none" stroke="black" points="0,-514.628 112,-514.628 "/>
<text text-anchor="start" x="8" y="-499.428" font-family="Times,serif" font-size="14.00">index</text>
<polyline fill="none" stroke="black" points="0,-491.628 112,-491.628 "/>
<polyline fill="none" stroke="black" points="0,-467.628 112,-467.628 "/>
<text text-anchor="start" x="8" y="-452.428" font-family="Times,serif" font-size="14.00">_layout</text>
</g>
<!-- ApplicationController&#45;&gt;HomeController -->
<g id="edge3" class="edge"><title>ApplicationController&#45;&gt;HomeController</title>
<path fill="none" stroke="black" d="M149.604,-373.857C131.505,-396.533 110.684,-422.618 93.2808,-444.421"/>
</g>
</g>
</svg>
