<?xml version="1.0" encoding="UTF-8" standalone="no"?>
<!DOCTYPE svg PUBLIC "-//W3C//DTD SVG 1.1//EN"
 "http://www.w3.org/Graphics/SVG/1.1/DTD/svg11.dtd">
<!-- Generated by graphviz version 2.30.0 (20130807.2243)
 -->
<!-- Title: models_diagram Pages: 1 -->
<svg width="596pt" height="424pt"
 viewBox="0.00 0.00 596.00 424.00" xmlns="http://www.w3.org/2000/svg" xmlns:xlink="http://www.w3.org/1999/xlink">
<g id="graph0" class="graph" transform="scale(1 1) rotate(0) translate(4 420)">
<title>models_diagram</title>
<polygon fill="white" stroke="white" points="-4,5 -4,-420 593,-420 593,5 -4,5"/>
<!-- _diagram_info -->
<g id="node1" class="node"><title>_diagram_info</title>
<text text-anchor="start" x="8" y="-326.6" font-family="Times,serif" font-size="13.00">Models diagram</text>
<text text-anchor="start" x="8" y="-312.6" font-family="Times,serif" font-size="13.00">Date: Aug 08 2013 &#45; 00:46</text>
<text text-anchor="start" x="8" y="-298.6" font-family="Times,serif" font-size="13.00">Migration version: 20130617205009</text>
<text text-anchor="start" x="8" y="-284.6" font-family="Times,serif" font-size="13.00">Generated by RailRoady 1.1.0</text>
<text text-anchor="start" x="8" y="-270.6" font-family="Times,serif" font-size="13.00">http://railroady.prestonlee.com</text>
</g>
<!-- Asignatura -->
<g id="node2" class="node"><title>Asignatura</title>
<path fill="none" stroke="black" d="M238.5,-226.5C238.5,-226.5 349.5,-226.5 349.5,-226.5 355.5,-226.5 361.5,-232.5 361.5,-238.5 361.5,-238.5 361.5,-365.5 361.5,-365.5 361.5,-371.5 355.5,-377.5 349.5,-377.5 349.5,-377.5 238.5,-377.5 238.5,-377.5 232.5,-377.5 226.5,-371.5 226.5,-365.5 226.5,-365.5 226.5,-238.5 226.5,-238.5 226.5,-232.5 232.5,-226.5 238.5,-226.5"/>
<text text-anchor="middle" x="294" y="-362.3" font-family="Times,serif" font-size="14.00">Asignatura</text>
<polyline fill="none" stroke="black" points="226.5,-354.5 361.5,-354.5 "/>
<text text-anchor="start" x="234.5" y="-339.3" font-family="Times,serif" font-size="14.00">id :integer</text>
<text text-anchor="start" x="234.5" y="-324.3" font-family="Times,serif" font-size="14.00">curso :integer</text>
<text text-anchor="start" x="234.5" y="-309.3" font-family="Times,serif" font-size="14.00">nombre :string</text>
<text text-anchor="start" x="234.5" y="-294.3" font-family="Times,serif" font-size="14.00">titulo :string</text>
<text text-anchor="start" x="234.5" y="-279.3" font-family="Times,serif" font-size="14.00">created_at :datetime</text>
<text text-anchor="start" x="234.5" y="-264.3" font-family="Times,serif" font-size="14.00">updated_at :datetime</text>
<text text-anchor="start" x="234.5" y="-249.3" font-family="Times,serif" font-size="14.00">code :string</text>
<text text-anchor="start" x="234.5" y="-234.3" font-family="Times,serif" font-size="14.00">descripcion :string</text>
</g>
<!-- Codigo -->
<g id="node3" class="node"><title>Codigo</title>
<path fill="none" stroke="black" d="M235.5,-0.5C235.5,-0.5 352.5,-0.5 352.5,-0.5 358.5,-0.5 364.5,-6.5 364.5,-12.5 364.5,-12.5 364.5,-139.5 364.5,-139.5 364.5,-145.5 358.5,-151.5 352.5,-151.5 352.5,-151.5 235.5,-151.5 235.5,-151.5 229.5,-151.5 223.5,-145.5 223.5,-139.5 223.5,-139.5 223.5,-12.5 223.5,-12.5 223.5,-6.5 229.5,-0.5 235.5,-0.5"/>
<text text-anchor="middle" x="294" y="-136.3" font-family="Times,serif" font-size="14.00">Codigo</text>
<polyline fill="none" stroke="black" points="223.5,-128.5 364.5,-128.5 "/>
<text text-anchor="start" x="231.5" y="-113.3" font-family="Times,serif" font-size="14.00">id :integer</text>
<text text-anchor="start" x="231.5" y="-98.3" font-family="Times,serif" font-size="14.00">created_at :datetime</text>
<text text-anchor="start" x="231.5" y="-83.3" font-family="Times,serif" font-size="14.00">updated_at :datetime</text>
<text text-anchor="start" x="231.5" y="-68.3" font-family="Times,serif" font-size="14.00">idfichero :string</text>
<text text-anchor="start" x="231.5" y="-53.3" font-family="Times,serif" font-size="14.00">tipo :string</text>
<text text-anchor="start" x="231.5" y="-38.3" font-family="Times,serif" font-size="14.00">asignatura_id :integer</text>
<text text-anchor="start" x="231.5" y="-23.3" font-family="Times,serif" font-size="14.00">informacion :text</text>
<text text-anchor="start" x="231.5" y="-8.3" font-family="Times,serif" font-size="14.00">filename :string</text>
</g>
<!-- Asignatura&#45;&gt;Codigo -->
<g id="edge1" class="edge"><title>Asignatura&#45;&gt;Codigo</title>
<path fill="none" stroke="#e3b3ca" d="M294,-218.144C294,-199.757 294,-180.243 294,-161.78"/>
<ellipse fill="none" stroke="#e3b3ca" cx="294" cy="-222.411" rx="4" ry="4"/>
<polygon fill="#e3b3ca" stroke="#e3b3ca" points="294,-161.645 298.5,-151.645 294,-156.645 294,-151.645 294,-151.645 294,-151.645 294,-156.645 289.5,-151.645 294,-161.645 294,-161.645"/>
</g>
<!-- User -->
<g id="node4" class="node"><title>User</title>
<path fill="none" stroke="black" d="M391.5,-189C391.5,-189 576.5,-189 576.5,-189 582.5,-189 588.5,-195 588.5,-201 588.5,-201 588.5,-403 588.5,-403 588.5,-409 582.5,-415 576.5,-415 576.5,-415 391.5,-415 391.5,-415 385.5,-415 379.5,-409 379.5,-403 379.5,-403 379.5,-201 379.5,-201 379.5,-195 385.5,-189 391.5,-189"/>
<text text-anchor="middle" x="484" y="-399.8" font-family="Times,serif" font-size="14.00">User</text>
<polyline fill="none" stroke="black" points="379.5,-392 588.5,-392 "/>
<text text-anchor="start" x="387.5" y="-376.8" font-family="Times,serif" font-size="14.00">id :integer</text>
<text text-anchor="start" x="387.5" y="-361.8" font-family="Times,serif" font-size="14.00">email :string</text>
<text text-anchor="start" x="387.5" y="-346.8" font-family="Times,serif" font-size="14.00">encrypted_password :string</text>
<text text-anchor="start" x="387.5" y="-331.8" font-family="Times,serif" font-size="14.00">reset_password_token :string</text>
<text text-anchor="start" x="387.5" y="-316.8" font-family="Times,serif" font-size="14.00">reset_password_sent_at :datetime</text>
<text text-anchor="start" x="387.5" y="-301.8" font-family="Times,serif" font-size="14.00">remember_created_at :datetime</text>
<text text-anchor="start" x="387.5" y="-286.8" font-family="Times,serif" font-size="14.00">sign_in_count :integer</text>
<text text-anchor="start" x="387.5" y="-271.8" font-family="Times,serif" font-size="14.00">current_sign_in_at :datetime</text>
<text text-anchor="start" x="387.5" y="-256.8" font-family="Times,serif" font-size="14.00">last_sign_in_at :datetime</text>
<text text-anchor="start" x="387.5" y="-241.8" font-family="Times,serif" font-size="14.00">current_sign_in_ip :string</text>
<text text-anchor="start" x="387.5" y="-226.8" font-family="Times,serif" font-size="14.00">last_sign_in_ip :string</text>
<text text-anchor="start" x="387.5" y="-211.8" font-family="Times,serif" font-size="14.00">created_at :datetime</text>
<text text-anchor="start" x="387.5" y="-196.8" font-family="Times,serif" font-size="14.00">updated_at :datetime</text>
</g>
</g>
</svg>
