<?xml version="1.0" encoding="UTF-8" standalone="no"?>
<!DOCTYPE svg PUBLIC "-//W3C//DTD SVG 1.1//EN"
 "http://www.w3.org/Graphics/SVG/1.1/DTD/svg11.dtd">
<!-- Generated by graphviz version 2.30.0 (20130807.2243)
 -->
<!-- Title: models_diagram Pages: 1 -->
<svg width="413pt" height="158pt"
 viewBox="0.00 0.00 413.00 158.00" xmlns="http://www.w3.org/2000/svg" xmlns:xlink="http://www.w3.org/1999/xlink">
<g id="graph0" class="graph" transform="scale(1 1) rotate(0) translate(4 154)">
<title>models_diagram</title>
<polygon fill="white" stroke="white" points="-4,5 -4,-154 410,-154 410,5 -4,5"/>
<!-- _diagram_info -->
<g id="node1" class="node"><title>_diagram_info</title>
<text text-anchor="start" x="8" y="-135.6" font-family="Times,serif" font-size="13.00">Models diagram</text>
<text text-anchor="start" x="8" y="-121.6" font-family="Times,serif" font-size="13.00">Date: Aug 08 2013 &#45; 00:46</text>
<text text-anchor="start" x="8" y="-107.6" font-family="Times,serif" font-size="13.00">Migration version: 20130617205009</text>
<text text-anchor="start" x="8" y="-93.6" font-family="Times,serif" font-size="13.00">Generated by RailRoady 1.1.0</text>
<text text-anchor="start" x="8" y="-79.6" font-family="Times,serif" font-size="13.00">http://railroady.prestonlee.com</text>
</g>
<!-- Asignatura -->
<g id="node2" class="node"><title>Asignatura</title>
<ellipse fill="none" stroke="black" cx="278" cy="-111" rx="51.4931" ry="18"/>
<text text-anchor="middle" x="278" y="-107.3" font-family="Times,serif" font-size="14.00">Asignatura</text>
</g>
<!-- Codigo -->
<g id="node3" class="node"><title>Codigo</title>
<ellipse fill="none" stroke="black" cx="278" cy="-18" rx="38.4949" ry="18"/>
<text text-anchor="middle" x="278" y="-14.3" font-family="Times,serif" font-size="14.00">Codigo</text>
</g>
<!-- Asignatura&#45;&gt;Codigo -->
<g id="edge1" class="edge"><title>Asignatura&#45;&gt;Codigo</title>
<path fill="none" stroke="#e37ba2" d="M278,-84.7285C278,-72.7246 278,-58.3622 278,-46.1291"/>
<ellipse fill="none" stroke="#e37ba2" cx="278" cy="-88.8836" rx="4" ry="4"/>
<polygon fill="#e37ba2" stroke="#e37ba2" points="278,-46.0397 282.5,-36.0396 278,-41.0397 278,-36.0397 278,-36.0397 278,-36.0397 278,-41.0397 273.5,-36.0397 278,-46.0397 278,-46.0397"/>
</g>
<!-- User -->
<g id="node4" class="node"><title>User</title>
<ellipse fill="none" stroke="black" cx="377" cy="-111" rx="28.3955" ry="18"/>
<text text-anchor="middle" x="377" y="-107.3" font-family="Times,serif" font-size="14.00">User</text>
</g>
</g>
</svg>
